<?xml version="1.0" encoding="UTF-8" standalone="no"?>
<!-- Created with Inkscape (http://www.inkscape.org/) -->

<svg
   width="1000"
   height="1000"
   viewBox="0 0 264.58333 264.58333"
   version="1.1"
   id="svg4659"
   inkscape:version="1.2 (56b05e47e7, 2022-06-09, custom)"
   sodipodi:docname="metronome.svg"
   xmlns:inkscape="http://www.inkscape.org/namespaces/inkscape"
   xmlns:sodipodi="http://sodipodi.sourceforge.net/DTD/sodipodi-0.dtd"
   xmlns="http://www.w3.org/2000/svg"
   xmlns:svg="http://www.w3.org/2000/svg">
  <sodipodi:namedview
     id="namedview4661"
     pagecolor="#ffffff"
     bordercolor="#666666"
     borderopacity="1.0"
     inkscape:showpageshadow="2"
     inkscape:pageopacity="0.0"
     inkscape:pagecheckerboard="0"
     inkscape:deskcolor="#d1d1d1"
     inkscape:document-units="mm"
     showgrid="false"
     inkscape:zoom="0.51410504"
     inkscape:cx="376.38223"
     inkscape:cy="544.63578"
     inkscape:window-width="1853"
     inkscape:window-height="1025"
     inkscape:window-x="67"
     inkscape:window-y="27"
     inkscape:window-maximized="1"
     inkscape:current-layer="layer1" />
  <defs
     id="defs4656" />
  <g
     inkscape:label="Layer 1"
     inkscape:groupmode="layer"
     id="layer1">
    <path
       d="M 90.337224,196.43647 H 173.5655 c 8.04769,-0.0236 15.75957,-3.23385 21.44616,-8.92937 5.6878,-5.69584 8.8872,-13.41253 8.89804,-21.46021 V 165.777 c -10e-4,-5.39296 -1.43882,-10.68672 -4.16101,-15.3406 L 169.7419,99.081476 182.63185,74.674561 h -10e-4 c 1.22859,-2.118228 1.54081,-4.645847 0.86454,-6.999701 -0.67784,-2.352044 -2.283,-4.328922 -4.44982,-5.471303 -2.1653,-1.142302 -4.70249,-1.352537 -7.02782,-0.583682 -2.3238,0.770427 -4.23493,2.455602 -5.28934,4.664725 l -7.6713,14.531219 -3.30603,-5.645627 -0.11295,-0.202413 c -4.99732,-8.319218 -13.99297,-13.409321 -23.69759,-13.409321 -9.70461,0 -18.69866,5.090103 -23.69758,13.409321 l -0.11295,0.202413 -44.040268,75.580278 c -3.602594,6.18389 -4.906534,13.44066 -3.682616,20.49216 1.223884,7.05313 4.896902,13.44548 10.373021,18.05357 5.476108,4.61009 12.401901,7.13787 19.559859,7.13908 z m 69.506846,-78.61702 14.39626,24.63108 H 146.84287 Z M 123.67389,84.235322 c 1.74483,-2.898048 4.88124,-4.671147 8.26581,-4.671147 3.38448,0 6.52088,1.773053 8.2674,4.671147 l 8.99684,15.295181 -22.69658,42.919627 H 89.751972 Z M 79.316303,160.44625 H 184.67721 c 0.80494,1.6632 1.22858,3.48489 1.23642,5.3315 v 0.26989 c 0,3.2872 -1.30547,6.43935 -3.62928,8.76468 -2.32536,2.32381 -5.47772,3.62927 -8.76468,3.62927 H 90.291395 c -4.311649,0.0141 -8.317612,-2.22178 -10.569036,-5.89828 -2.253188,-3.67787 -2.424232,-8.26259 -0.453457,-12.09744 z"
       id="path5493"
       style="fill:#cccccc;fill-opacity:1;stroke-width:0.352778" />
  </g>
</svg>
