<?xml version="1.0" encoding="UTF-8" standalone="no"?>
<svg
   width="1000"
   height="1000"
   version="1.1"
   viewBox="0 0 749.99998 749.99998"
   id="svg22"
   sodipodi:docname="noise.svg"
   inkscape:version="1.1.2 (08b2f3d93c, 2022-04-05)"
   xmlns:inkscape="http://www.inkscape.org/namespaces/inkscape"
   xmlns:sodipodi="http://sodipodi.sourceforge.net/DTD/sodipodi-0.dtd"
   xmlns="http://www.w3.org/2000/svg"
   xmlns:svg="http://www.w3.org/2000/svg">
  <defs
     id="defs26" />
  <sodipodi:namedview
     id="namedview24"
     pagecolor="#ffffff"
     bordercolor="#666666"
     borderopacity="1.0"
     inkscape:pageshadow="2"
     inkscape:pageopacity="0.0"
     inkscape:pagecheckerboard="0"
     inkscape:document-units="pt"
     showgrid="false"
     units="px"
     width="1000px"
     inkscape:zoom="0.52830596"
     inkscape:cx="460.90716"
     inkscape:cy="511.06749"
     inkscape:window-width="1853"
     inkscape:window-height="1025"
     inkscape:window-x="67"
     inkscape:window-y="27"
     inkscape:window-maximized="1"
     inkscape:current-layer="g20" />
  <g
     id="g20"
     transform="matrix(1.1394836,0,0,1.1394836,-50.368227,-56.368227)"
     style="stroke:#cccccc;stroke-opacity:1;stroke-width:8.77590515;stroke-miterlimit:4;stroke-dasharray:none;fill:#cccccc;fill-opacity:1;stroke-linejoin:round">
    <path
       d="m 564.12442,384.14102 c -13.41602,77.97579 -81.54229,137.56027 -162.98947,137.56027 -71.97096,0 -130.52234,-58.55495 -130.52234,-130.52235 0,-56.58148 45.97944,-102.56091 102.467,-102.56091 44.19618,0 80.22742,35.93852 80.22742,80.1347 0,34.34192 -27.96142,62.30691 -62.30691,62.30691 -26.36839,0 -47.85541,-21.48702 -47.85541,-47.94815 0,-5.1593 -4.22133,-9.38526 -9.38528,-9.38526 -5.15931,0 -9.38527,4.22132 -9.38527,9.38526 0,36.78379 29.9349,66.71869 66.6212,66.71869 44.66459,0 81.0727,-36.40811 81.0727,-81.0727 0,-54.51884 -44.38164,-98.90048 -98.9944,-98.90048 -66.81142,0 -121.23754,54.42612 -121.23754,121.33264 0,82.29482 66.99688,149.29407 149.29408,149.29407 91.39654,0 167.97069,-67.46646 181.8444,-155.3928 -2.24297,0.36687 -4.58819,0.55262 -7.03089,0.55262 -4.03551,0 -8.07113,-0.56192 -11.82334,-1.49996 z"
       id="path2"
       style="fill:#cccccc;fill-opacity:1;stroke:#cccccc;stroke-width:13.0655676;stroke-linejoin:round;stroke-miterlimit:4;stroke-dasharray:none;stroke-opacity:1" />
    <path
       d="M 193.65923,368.37705 C 207.07525,290.40128 275.20152,230.8168 356.6487,230.8168 c 71.97096,0 130.52233,58.55495 130.52233,130.52235 0,56.58148 -45.97943,102.56091 -102.46699,102.56091 -44.19618,0 -80.22742,-35.93853 -80.22742,-80.1347 0,-34.34192 27.96142,-62.30691 62.30691,-62.30691 26.36839,0 47.85541,21.48702 47.85541,47.94815 0,5.1593 4.22133,9.38526 9.38527,9.38526 5.15932,0 9.38528,-4.22132 9.38528,-9.38526 0,-36.78379 -29.93491,-66.7187 -66.6212,-66.7187 -44.66459,0 -81.07271,36.40812 -81.07271,81.07271 0,54.51884 44.38165,98.90047 98.99441,98.90047 66.81141,0 121.23754,-54.42611 121.23754,-121.33263 0,-82.29482 -66.99688,-149.29407 -149.29408,-149.29407 -91.39654,0 -167.97069,67.46646 -181.8444,155.3928 2.24761,-0.36687 4.59282,-0.55262 7.03553,-0.55262 4.03087,0 8.06649,0.56192 11.8187,1.49996 z"
       id="path4"
       style="fill:#cccccc;fill-opacity:1;stroke:#cccccc;stroke-width:13.0655676;stroke-linejoin:round;stroke-miterlimit:4;stroke-dasharray:none;stroke-opacity:1" />
  </g>
</svg>
