<?xml version="1.0" encoding="UTF-8" standalone="no"?>
<!-- Created with Inkscape (http://www.inkscape.org/) -->

<svg
   width="1000"
   height="1000"
   viewBox="0 0 264.58333 264.58333"
   version="1.1"
   id="svg3102"
   inkscape:version="1.2 (56b05e47e7, 2022-06-09, custom)"
   sodipodi:docname="soundwave.svg"
   xmlns:inkscape="http://www.inkscape.org/namespaces/inkscape"
   xmlns:sodipodi="http://sodipodi.sourceforge.net/DTD/sodipodi-0.dtd"
   xmlns="http://www.w3.org/2000/svg"
   xmlns:svg="http://www.w3.org/2000/svg">
  <sodipodi:namedview
     id="namedview3104"
     pagecolor="#ffffff"
     bordercolor="#666666"
     borderopacity="1.0"
     inkscape:showpageshadow="2"
     inkscape:pageopacity="0.0"
     inkscape:pagecheckerboard="0"
     inkscape:deskcolor="#d1d1d1"
     inkscape:document-units="mm"
     showgrid="false"
     inkscape:zoom="0.43866425"
     inkscape:cx="339.66752"
     inkscape:cy="394.37907"
     inkscape:window-width="1452"
     inkscape:window-height="759"
     inkscape:window-x="344"
     inkscape:window-y="76"
     inkscape:window-maximized="0"
     inkscape:current-layer="layer1" />
  <defs
     id="defs3099" />
  <g
     inkscape:label="Layer 1"
     inkscape:groupmode="layer"
     id="layer1">
    <path
       d="m 46.990518,119.9921 c -3.015252,0 -5.457884,2.44381 -5.457884,5.46049 v 11.68742 c 0,3.0167 2.442632,5.4605 5.457884,5.4605 3.015242,0 5.457885,-2.4438 5.457885,-5.4605 v -11.68742 c 0,-3.01668 -2.442643,-5.46049 -5.457885,-5.46049 z"
       id="path1681"
       style="fill:#cccccc;fill-opacity:1;stroke:#cccccc;stroke-width:6;stroke-dasharray:none;stroke-opacity:1" />
    <path
       d="m 71.226213,108.86751 c -3.015245,0 -5.457884,2.1358 -5.457884,4.77226 v 37.40094 c 0,2.63646 2.442639,4.77226 5.457884,4.77226 3.015252,0 5.457885,-2.1358 5.457885,-4.77226 v -37.40094 c 0,-2.63513 -2.444157,-4.77226 -5.457885,-4.77226 z"
       id="path1683"
       style="fill:#cccccc;fill-opacity:1;stroke:#cccccc;stroke-width:6;stroke-dasharray:none;stroke-opacity:1" />
    <path
       d="m 119.3523,101.53815 c -3.01524,0 -5.45787,2.80278 -5.45787,6.26255 v 49.08016 c 0,3.45975 2.44263,6.26249 5.45787,6.26249 3.01525,0 5.45789,-2.80274 5.45789,-6.26249 V 107.8007 c 0,-3.45803 -2.44416,-6.26255 -5.45789,-6.26255 z"
       id="path1683-3"
       style="fill:#cccccc;fill-opacity:1;stroke:#cccccc;stroke-width:6;stroke-dasharray:none;stroke-opacity:1" />
    <path
       d="m 95.461921,76.526481 c -3.01525,0 -5.457894,2.443808 -5.457894,5.460498 v 98.616651 c 0,3.01669 2.442644,5.4605 5.457894,5.4605 3.015271,0 5.457919,-2.44381 5.457919,-5.4605 V 81.986979 c 0,-3.015171 -2.442648,-5.460498 -5.457919,-5.460498 z"
       id="path1685"
       style="fill:#cccccc;fill-opacity:1;stroke:#cccccc;stroke-width:6;stroke-dasharray:none;stroke-opacity:1" />
    <path
       d="m 143.97807,56.45876 c -3.01525,0 -5.45788,2.443807 -5.45788,5.460498 V 200.67058 c 0,3.01669 2.44263,5.46049 5.45788,5.46049 3.01524,0 5.45789,-2.4438 5.45789,-5.46049 V 61.919258 c 0,-3.016691 -2.44265,-5.460498 -5.45789,-5.460498 z"
       id="path1695"
       style="fill:#cccccc;fill-opacity:1;stroke:#cccccc;stroke-width:6;stroke-dasharray:none;stroke-opacity:1" />
    <path
       d="m 168.21379,77.8292 c -3.01524,0 -5.45788,2.443806 -5.45788,5.460499 v 96.007311 c 0,3.0167 2.44264,5.4605 5.45788,5.4605 3.01526,0 5.45789,-2.4438 5.45789,-5.4605 V 83.289699 c 0,-3.01365 -2.44263,-5.460499 -5.45789,-5.460499 z"
       id="path1697"
       style="fill:#cccccc;fill-opacity:1;stroke:#cccccc;stroke-width:6;stroke-dasharray:none;stroke-opacity:1" />
    <path
       d="m 192.44953,110.17881 c -3.01524,0 -5.45789,2.4438 -5.45789,5.4605 v 31.30659 c 0,3.0167 2.44265,5.4605 5.45789,5.4605 3.01525,0 5.45788,-2.4438 5.45788,-5.4605 v -31.30659 c 0,-3.01366 -2.44263,-5.4605 -5.45788,-5.4605 z"
       id="path1699"
       style="fill:#cccccc;fill-opacity:1;stroke:#cccccc;stroke-width:6;stroke-dasharray:none;stroke-opacity:1" />
    <path
       d="m 216.11736,119.9921 c -3.01524,0 -5.45788,2.44381 -5.45788,5.46049 v 11.68742 c 0,3.0167 2.44264,5.4605 5.45788,5.4605 3.01526,0 5.45788,-2.4438 5.45788,-5.4605 v -11.68742 c 0,-3.01668 -2.44262,-5.46049 -5.45788,-5.46049 z"
       id="path1701"
       style="fill:#cccccc;fill-opacity:1;stroke:#cccccc;stroke-width:6;stroke-dasharray:none;stroke-opacity:1" />
  </g>
</svg>
